<svg width="132" height="38" viewBox="0 0 132 38" xmlns="http://www.w3.org/2000/svg"><g fill="none" fill-rule="evenodd"><path d="M127.73 0H4.27C1.91 0 0 1.91 0 4.27v29.46C0 36.09 1.912 38 4.27 38h123.46c2.36 0 4.27-1.912 4.27-4.27V4.27c0-2.36-1.912-4.27-4.27-4.27z" id="Shape" fill="#000"/><path d="M25.35 9.237c1.578-1.93 1.25-3.935 1.25-3.935s-2.206.01-3.792 2.143c-1.41 1.895-1.05 3.517-1.05 3.517s1.91.338 3.593-1.725zm3.028 9.113c0-3.304 2.612-4.665 2.612-4.665s-1.336-2.462-4.73-2.462c-1.97 0-3.485 1.144-4.302 1.144-.95 0-2.37-1.076-4.197-1.076-2.81 0-5.81 2.57-5.81 7.47 0 4.975 3.544 11.166 6.35 11.166.977 0 2.48-1.006 3.994-1.006 1.487 0 2.582.97 3.994.97 3.07 0 5.345-6.528 5.345-6.528s-3.252-1.284-3.252-5.01z" fill="#fff"/><g fill="#fff"><path d="M43.66 6.435c.44-.273 1.037-.5 1.83-.5 1.252 0 2.036.64 2.036 1.594 0 .79-.542 1.346-1.28 1.524v.02c.832.093 1.504.66 1.504 1.536 0 1.378-1.29 1.888-2.455 1.888-.616 0-1.27-.134-1.783-.435l.27-.895c.31.17.916.386 1.466.386.822 0 1.288-.396 1.288-1 0-.81-.803-1.017-1.493-1.017h-.496v-.87h.495c.728 0 1.29-.386 1.29-.96 0-.52-.403-.83-1.037-.83-.486 0-1 .197-1.353.386l-.28-.83z" id="Shape"/><path d="M51.667 12.395l-.075-.51h-.028c-.28.36-.756.614-1.344.614-.915 0-1.428-.67-1.428-1.37 0-1.16 1.018-1.746 2.698-1.736V9.32c0-.302-.12-.802-.924-.802-.448 0-.914.14-1.223.34l-.224-.755c.333-.208.92-.406 1.64-.406 1.455 0 1.875.934 1.875 1.933v1.66c0 .415.02.82.065 1.103h-1.034v.002zm-.15-2.244c-.81-.016-1.586.16-1.586.86 0 .454.29.66.657.66.458 0 .794-.3.896-.63.03-.085.038-.18.038-.254v-.633z" id="Shape"/><path d="M57.22 7.802v.915h-1.86v3.677h-1.148V7.8l3.007.002z" id="Shape"/><path d="M58.29 9.33c0-.604-.02-1.094-.037-1.527h1.01l.055.708h.02c.335-.516.867-.81 1.558-.81 1.046 0 1.914.907 1.914 2.34 0 1.66-1.037 2.46-2.072 2.46-.57 0-1.045-.243-1.28-.61h-.018v2.375h-1.148L58.29 9.33zm1.147 1.14c0 .115.01.22.037.322.112.472.523.81 1.01.81.727 0 1.157-.61 1.157-1.517 0-.81-.39-1.47-1.126-1.47-.476 0-.915.348-1.027.857-.028.094-.047.198-.047.293v.706z" id="Shape"/><path d="M64.7 7.802l.82 2.46c.094.284.188.632.253.896h.028c.078-.264.16-.604.246-.905l.71-2.452h1.23l-1.138 3.134c-.626 1.716-1.046 2.48-1.587 2.952-.45.406-.914.556-1.204.594l-.26-.98c.195-.05.438-.154.67-.323.216-.14.468-.415.627-.726.047-.083.075-.15.075-.206 0-.047-.01-.113-.065-.226L63.44 7.8l1.26.002z" id="Shape"/><path d="M69.495 9.66h.55c.626 0 .99-.254.99-.584 0-.33-.308-.557-.82-.557-.384 0-.804.13-1.122.33l-.243-.69c.494-.31 1.11-.454 1.7-.454.765 0 1.7.302 1.7 1.216 0 .595-.524.925-1 1.038v.02c.607.065 1.205.434 1.205 1.11 0 1.068-1.186 1.398-2.12 1.398-.598 0-1.195-.15-1.643-.416l.26-.736c.32.17.804.31 1.26.31.636 0 .98-.263.98-.622 0-.48-.494-.632-1.138-.632h-.56V9.66z" id="Shape"/><path d="M74.84 7.802v1.65c0 .726-.027 1.217-.065 1.858h.028c.243-.538.383-.878.616-1.358l1.12-2.15h1.39v4.593h-1.09v-1.64c0-.736.027-1.076.074-1.943h-.037c-.223.547-.373.877-.598 1.32-.355.68-.766 1.51-1.158 2.264h-1.37V7.802h1.09z" id="Shape"/><path d="M82.856 7.802V8.7h-1.363v3.696h-1.15V8.7H78.98v-.9h3.877z" id="Shape"/><path d="M84.6 10.425c.027.83.67 1.188 1.4 1.188.53 0 .914-.076 1.26-.208l.167.8c-.392.16-.933.284-1.587.284-1.475 0-2.343-.917-2.343-2.32 0-1.275.766-2.474 2.223-2.474 1.475 0 1.96 1.226 1.96 2.235 0 .218-.02.388-.037.49l-3.044.003zm1.996-.812c.01-.424-.177-1.122-.943-1.122-.71 0-1.008.654-1.055 1.125h1.998z" id="Shape"/><path d="M91.268 7.858c.336-.056 1.027-.113 1.652-.113.766 0 2.147.104 2.147 1.16 0 .585-.448.915-.933 1.02v.018c.672.103 1.14.48 1.14 1.122 0 1.264-1.643 1.386-2.558 1.386-.57 0-1.177-.034-1.447-.063l-.004-4.527zm1.11 3.84c.188.02.327.028.56.028.524 0 1.16-.14 1.16-.68 0-.518-.505-.688-1.224-.688h-.495v1.34zm.01-2.037h.477c.588 0 1.074-.17 1.074-.6 0-.37-.32-.567-1-.567-.225 0-.375.02-.55.038v1.13z" id="Shape"/><path d="M50.747 28.686h-2.145l-1.174-3.765h-4.084l-1.12 3.768h-2.087l4.046-12.817h2.5l4.064 12.817zm-3.673-5.344l-1.063-3.347c-.11-.342-.32-1.147-.63-2.414h-.04c-.122.548-.32 1.35-.595 2.418L43.7 23.342h3.374z" id="Shape"/><path d="M61.152 23.95c0 1.573-.417 2.815-1.25 3.727-.745.812-1.67 1.218-2.778 1.218-1.194 0-2.05-.437-2.573-1.312h-.035v4.87H52.5v-9.967c0-.988-.025-2.002-.075-3.042h1.77l.113 1.465h.038c.672-1.107 1.69-1.658 3.058-1.658 1.07 0 1.962.43 2.675 1.292.713.864 1.07 2 1.07 3.405zm-2.05.077c0-.9-.2-1.64-.598-2.225-.435-.61-1.02-.913-1.753-.913-.494 0-.945.166-1.35.5-.402.338-.67.778-.79 1.323-.062.254-.093.462-.093.626v1.54c0 .673.202 1.24.606 1.703.405.463.93.694 1.576.694.76 0 1.347-.3 1.77-.894.422-.595.634-1.38.634-2.357z" id="Shape"/><path d="M71.575 23.95c0 1.573-.417 2.815-1.25 3.727-.746.812-1.673 1.218-2.778 1.218-1.194 0-2.05-.437-2.572-1.312h-.038v4.87h-2.013v-9.967c0-.988-.025-2.002-.075-3.042h1.77l.11 1.465h.04c.67-1.107 1.69-1.658 3.056-1.658 1.068 0 1.96.43 2.677 1.292.712.864 1.07 2 1.07 3.405zm-2.05.077c0-.9-.2-1.64-.6-2.225-.434-.61-1.017-.913-1.75-.913-.5 0-.95.166-1.354.5-.4.338-.665.778-.79 1.323-.06.254-.092.462-.092.626v1.54c0 .673.202 1.24.604 1.703.405.462.93.694 1.578.694.76 0 1.348-.3 1.77-.894.425-.595.637-1.38.637-2.357z" id="Shape"/><path d="M83.228 25.092c0 1.09-.37 1.977-1.116 2.662-.82.748-1.96 1.122-3.424 1.122-1.353 0-2.437-.266-3.257-.798l.47-1.71c.883.544 1.853.817 2.91.817.76 0 1.35-.175 1.773-.524.423-.346.634-.814.634-1.4 0-.52-.174-.956-.522-1.31-.346-.356-.925-.687-1.734-.99-2.2-.84-3.3-2.065-3.3-3.677 0-1.052.387-1.917 1.16-2.59.77-.672 1.793-1.008 3.076-1.008 1.144 0 2.094.203 2.852.61l-.504 1.673c-.707-.393-1.508-.59-2.404-.59-.71 0-1.26.178-1.66.533-.335.318-.504.704-.504 1.16 0 .508.192.926.577 1.256.335.304.945.634 1.828.99 1.08.443 1.878.962 2.388 1.557.51.593.764 1.335.764 2.222z" id="Shape"/><path d="M89.885 20.985h-2.22v4.487c0 1.14.392 1.71 1.175 1.71.36 0 .658-.03.894-.094l.056 1.56c-.397.15-.92.226-1.566.226-.795 0-1.417-.248-1.865-.74-.45-.496-.675-1.326-.675-2.492v-4.66h-1.322v-1.54h1.322V17.75l1.978-.61v2.302h2.22v1.543z" id="Shape"/><path d="M99.9 23.99c0 1.42-.4 2.586-1.195 3.498-.834.94-1.94 1.407-3.32 1.407-1.33 0-2.388-.45-3.178-1.35-.79-.898-1.185-2.034-1.185-3.403 0-1.432.406-2.605 1.22-3.517.814-.913 1.912-1.37 3.29-1.37 1.33 0 2.4.45 3.208 1.35.774.874 1.16 2.002 1.16 3.384zm-2.09.065c0-.852-.178-1.583-.54-2.193-.422-.738-1.026-1.105-1.807-1.105-.81 0-1.424.37-1.846 1.105-.362.61-.54 1.353-.54 2.23 0 .853.18 1.584.54 2.193.435.738 1.044 1.105 1.828 1.105.77 0 1.372-.376 1.807-1.125.37-.62.558-1.36.558-2.21z"/><path d="M106.444 21.25c-.2-.037-.412-.057-.634-.057-.708 0-1.256.273-1.64.818-.336.484-.505 1.09-.505 1.828v4.85h-2.013l.02-6.333c0-1.065-.026-2.035-.076-2.91h1.753l.07 1.768h.057c.212-.607.547-1.096 1.005-1.463.448-.33.933-.496 1.455-.496.186 0 .354.013.504.037v1.96z"/><path d="M115.448 23.628c0 .368-.024.678-.074.93h-6.04c.024.914.315 1.612.876 2.094.51.43 1.167.646 1.975.646.894 0 1.71-.146 2.444-.437l.312 1.43c-.858.38-1.87.57-3.038.57-1.405 0-2.508-.42-3.31-1.264-.802-.842-1.203-1.974-1.203-3.394 0-1.392.374-2.553 1.12-3.48.783-.987 1.84-1.48 3.17-1.48 1.306 0 2.295.493 2.966 1.48.533.785.8 1.756.8 2.91zm-1.92-.532c.013-.61-.118-1.135-.39-1.58-.35-.57-.885-.856-1.606-.856-.658 0-1.194.278-1.603.837-.338.444-.537.977-.6 1.597h4.195v.002z"/></g></g></svg>